<svg version="1.1" id="Layer_1" xmlns="http://www.w3.org/2000/svg" xmlns:xlink="http://www.w3.org/1999/xlink" x="0px" y="0px"
	 width="100%" viewBox="0 0 1920 877" enable-background="new 0 0 1920 877" xml:space="preserve">
<path fill="#FFFFFF" opacity="1.000000" stroke="none" 
	d="
M1202.000000,878.000000 
	C801.333496,878.000000 401.166962,878.000000 1.000322,878.000000 
	C1.000215,585.666931 1.000215,293.333832 1.000107,1.000557 
	C640.999512,1.000372 1280.999023,1.000372 1920.998901,1.000186 
	C1920.999268,293.332733 1920.999268,585.665466 1920.999634,877.999146 
	C1681.500000,878.000000 1442.000000,878.000000 1202.000000,878.000000 
M227.015915,272.459991 
	C194.741440,272.893860 171.913528,296.063843 170.518158,330.178131 
	C169.958588,343.858612 174.360046,356.072968 183.224731,366.567017 
	C196.921600,382.781403 215.075134,387.251251 235.956619,385.607208 
	C234.904037,387.589111 234.188828,388.845856 233.555252,390.142517 
	C227.045639,403.465057 223.497452,417.387695 226.562088,432.195099 
	C231.972794,458.338074 253.728012,475.347931 281.410675,475.363312 
	C345.070892,475.398712 408.731140,475.373962 472.391357,475.373596 
	C474.178864,475.373596 475.966370,475.373596 478.240112,475.373596 
	C477.565430,478.594269 477.001862,481.284515 476.366974,484.315247 
	C474.643463,484.315247 473.172241,484.315460 471.700989,484.315216 
	C450.203186,484.311890 428.703369,484.147430 407.208862,484.412170 
	C401.446777,484.483124 395.465057,485.094238 389.988586,486.775085 
	C367.424255,493.700623 355.692566,510.078674 351.195190,532.554749 
	C344.854492,564.243164 366.276886,594.286255 398.465942,597.052673 
	C415.179565,598.488953 432.093262,597.598267 448.916626,597.754211 
	C450.681519,597.770569 452.446716,597.756409 454.115784,597.756409 
	C454.115784,604.894470 453.883545,611.387573 454.154114,617.859680 
	C455.713196,655.153259 476.488647,682.384216 511.047302,692.641602 
	C526.274597,697.161316 541.888306,697.122681 557.593018,697.119141 
	C760.738037,697.073853 963.883057,697.144592 1167.028076,697.255920 
	C1194.896484,697.271179 1220.910522,691.340942 1243.539551,674.259155 
	C1264.429932,658.489868 1277.563477,637.039795 1286.766235,613.059265 
	C1291.343262,601.132080 1294.749756,588.755737 1298.833008,576.127686 
	C1300.282227,576.127686 1302.266724,576.127686 1304.251099,576.127686 
	C1417.072998,576.128967 1529.895020,576.131409 1642.716919,576.124817 
	C1645.548950,576.124634 1648.387085,576.126282 1651.212036,575.955200 
	C1674.800171,574.526550 1693.183228,564.319092 1705.520630,543.814880 
	C1712.889160,531.568665 1718.063477,518.398560 1720.983032,504.507568 
	C1729.883545,462.160278 1738.352905,419.722595 1747.090332,377.340759 
	C1749.684937,364.755585 1752.207642,352.214996 1751.050293,339.235107 
	C1749.417603,320.925568 1739.425171,308.907257 1721.513428,304.906982 
	C1715.397583,303.541138 1708.984375,302.956055 1702.706177,302.949951 
	C1588.551147,302.838776 1474.396118,302.870575 1360.240967,302.871948 
	C1358.177246,302.871979 1356.113525,302.871948 1354.111938,302.871948 
	C1355.144653,294.776001 1356.476562,287.380280 1356.930298,279.931030 
	C1357.395020,272.301819 1357.421387,264.591888 1356.908936,256.966400 
	C1354.526978,221.529541 1332.457153,195.016388 1298.244385,185.794540 
	C1283.897827,181.927505 1269.314575,181.886658 1254.619629,181.891357 
	C1054.140259,181.955505 853.661011,181.897934 653.181702,181.884109 
	C646.018677,181.883606 638.830505,181.664093 631.696899,182.161102 
	C596.880310,184.586792 567.796204,198.246231 546.291992,226.427277 
	C536.418274,239.366684 529.235352,253.757080 523.245239,268.824829 
	C522.604431,270.436707 520.496765,271.465424 518.223083,272.508057 
	C422.429138,272.495728 326.635193,272.482544 230.841232,272.483490 
	C229.856186,272.483490 228.871124,272.669800 227.015915,272.459991 
z"/>
<path fill="#111111" opacity="1.000000" stroke="none" 
	d="
M519.069580,272.764648 
	C520.496765,271.465424 522.604431,270.436707 523.245239,268.824829 
	C529.235352,253.757080 536.418274,239.366684 546.291992,226.427277 
	C567.796204,198.246231 596.880310,184.586792 631.696899,182.161102 
	C638.830505,181.664093 646.018677,181.883606 653.181702,181.884109 
	C853.661011,181.897934 1054.140259,181.955505 1254.619629,181.891357 
	C1269.314575,181.886658 1283.897827,181.927505 1298.244385,185.794540 
	C1332.457153,195.016388 1354.526978,221.529541 1356.908936,256.966400 
	C1357.421387,264.591888 1357.395020,272.301819 1356.930298,279.931030 
	C1356.476562,287.380280 1355.144653,294.776001 1354.111938,302.871948 
	C1356.113525,302.871948 1358.177246,302.871979 1360.240967,302.871948 
	C1474.396118,302.870575 1588.551147,302.838776 1702.706177,302.949951 
	C1708.984375,302.956055 1715.397583,303.541138 1721.513428,304.906982 
	C1739.425171,308.907257 1749.417603,320.925568 1751.050293,339.235107 
	C1752.207642,352.214996 1749.684937,364.755585 1747.090332,377.340759 
	C1738.352905,419.722595 1729.883545,462.160278 1720.983032,504.507568 
	C1718.063477,518.398560 1712.889160,531.568665 1705.520630,543.814880 
	C1693.183228,564.319092 1674.800171,574.526550 1651.212036,575.955200 
	C1648.387085,576.126282 1645.548950,576.124634 1642.716919,576.124817 
	C1529.895020,576.131409 1417.072998,576.128967 1304.251099,576.127686 
	C1302.266724,576.127686 1300.282227,576.127686 1298.833008,576.127686 
	C1294.749756,588.755737 1291.343262,601.132080 1286.766235,613.059265 
	C1277.563477,637.039795 1264.429932,658.489868 1243.539551,674.259155 
	C1220.910522,691.340942 1194.896484,697.271179 1167.028076,697.255920 
	C963.883057,697.144592 760.738037,697.073853 557.593018,697.119141 
	C541.888306,697.122681 526.274597,697.161316 511.047302,692.641602 
	C476.488647,682.384216 455.713196,655.153259 454.154114,617.859680 
	C453.883545,611.387573 454.115784,604.894470 454.115784,597.756409 
	C452.446716,597.756409 450.681519,597.770569 448.916626,597.754211 
	C432.093262,597.598267 415.179565,598.488953 398.465942,597.052673 
	C366.276886,594.286255 344.854492,564.243164 351.195190,532.554749 
	C355.692566,510.078674 367.424255,493.700623 389.988586,486.775085 
	C395.465057,485.094238 401.446777,484.483124 407.208862,484.412170 
	C428.703369,484.147430 450.203186,484.311890 471.700989,484.315216 
	C473.172241,484.315460 474.643463,484.315247 476.366974,484.315247 
	C477.001862,481.284515 477.565430,478.594269 478.240112,475.373596 
	C475.966370,475.373596 474.178864,475.373596 472.391357,475.373596 
	C408.731140,475.373962 345.070892,475.398712 281.410675,475.363312 
	C253.728012,475.347931 231.972794,458.338074 226.562088,432.195099 
	C223.497452,417.387695 227.045639,403.465057 233.555252,390.142517 
	C234.188828,388.845856 234.904037,387.589111 235.956619,385.607208 
	C215.075134,387.251251 196.921600,382.781403 183.224731,366.567017 
	C174.360046,356.072968 169.958588,343.858612 170.518158,330.178131 
	C171.913528,296.063843 194.741440,272.893860 227.722992,272.951019 
	C229.891983,273.626007 231.353836,273.970551 232.815796,273.970947 
	C326.550568,273.996368 420.285370,274.000336 514.020081,273.942749 
	C515.703552,273.941711 517.386414,273.174408 519.069580,272.764648 
M532.964905,357.811127 
	C530.654663,369.276031 528.344482,380.740906 525.528687,392.396759 
	C525.368469,392.314453 525.208313,392.232117 524.639709,391.570953 
	C523.412720,391.769348 522.185730,391.967743 520.066101,392.459320 
	C518.066895,392.473846 516.067749,392.501068 514.068542,392.501129 
	C437.086945,392.502716 360.105377,392.518555 283.123810,392.471313 
	C276.580688,392.467285 270.564514,393.692993 265.468628,398.068939 
	C257.688110,404.750305 253.644424,419.754700 257.077301,429.268768 
	C260.818634,439.637756 269.402252,445.025909 282.212952,445.026276 
	C358.028168,445.028534 433.843384,445.026001 509.658600,445.035797 
	C511.485077,445.036011 513.311523,445.160889 515.033875,446.018066 
	C510.409973,468.856293 505.786041,491.694519 500.224976,514.738281 
	C469.448242,514.747070 438.666107,515.110046 407.896759,514.637207 
	C388.181671,514.334290 379.954773,529.350952 380.593170,545.852478 
	C381.080475,558.448120 391.488647,567.106445 404.449554,567.168823 
	C433.058685,567.306396 461.668427,567.315186 490.177979,568.170227 
	C489.910004,569.643005 489.663177,571.119995 489.370728,572.587891 
	C486.148529,588.761475 482.922211,604.873840 484.869843,621.589539 
	C487.349182,642.869324 498.798950,657.566345 519.482605,663.265442 
	C527.728516,665.537415 536.536560,666.770020 545.090210,666.777954 
	C753.396729,666.970276 961.703430,666.966309 1170.010132,666.906372 
	C1206.782349,666.895813 1234.304565,651.150330 1251.339722,618.037903 
	C1258.139404,604.820862 1263.205688,591.013611 1266.777222,576.311523 
	C1256.545776,575.974915 1247.136108,575.627319 1237.808350,580.679993 
	C1224.363403,587.962891 1210.151733,593.830872 1196.263306,600.293945 
	C1191.080322,602.705750 1185.885986,605.092896 1180.696777,607.491394 
	C1201.906860,579.819092 1210.640381,547.400085 1217.734497,514.623352 
	C1228.366577,465.499084 1237.822144,416.120636 1247.854614,366.865845 
	C1251.547119,348.737305 1255.472046,330.653564 1254.083252,311.959167 
	C1253.867798,309.056854 1253.565186,306.161011 1253.260742,302.796387 
	C1276.695557,302.796387 1299.629761,302.796387 1322.593994,302.796387 
	C1326.125000,288.390289 1328.037720,274.245117 1326.821655,259.830322 
	C1324.682861,234.477448 1310.582886,218.653061 1285.625488,214.059067 
	C1278.464233,212.740875 1271.069702,212.143951 1263.781738,212.140472 
	C1057.474854,212.041840 851.167908,212.061096 644.860962,212.068069 
	C642.028748,212.068161 639.191284,212.062607 636.365173,212.219818 
	C612.916260,213.524292 591.851807,220.513611 575.714539,238.524414 
	C559.272034,256.875885 550.375244,278.956024 543.943115,302.817444 
	C540.945129,302.838074 537.947144,302.876678 534.949158,302.876770 
	C432.828003,302.879852 330.706848,302.874298 228.585693,302.905670 
	C225.772614,302.906525 222.871735,302.928589 220.161713,303.572083 
	C207.665588,306.539276 201.411346,317.007080 200.923111,332.264954 
	C200.546494,344.034943 208.862854,352.679749 222.230133,355.933105 
	C222.516296,355.825409 222.802444,355.717712 223.979614,355.334778 
	C324.182129,355.320679 424.384644,355.305481 524.587158,355.306732 
	C525.735229,355.306732 526.883301,355.520721 528.302856,356.242706 
	C529.838501,356.493683 531.374084,356.744659 532.964905,357.811127 
M1317.487061,508.967377 
	C1320.318604,508.950104 1323.157593,509.060577 1325.980225,508.893005 
	C1337.207642,508.226562 1347.376343,504.883636 1354.484253,495.658752 
	C1362.100586,485.774261 1364.502441,474.483429 1359.869385,462.740051 
	C1355.449097,451.535614 1345.469727,448.085785 1334.407715,447.632355 
	C1325.105713,447.251038 1315.775635,447.553925 1305.943604,447.553925 
	C1301.878418,467.834747 1297.803345,488.165131 1293.633667,508.967407 
	C1301.550049,508.967407 1309.020874,508.967407 1317.487061,508.967377 
M1624.834961,379.796021 
	C1624.066895,371.165375 1620.563965,364.112457 1612.950928,359.519531 
	C1593.011475,347.490326 1564.397583,358.857422 1558.233398,381.230316 
	C1553.269043,399.248749 1561.044067,414.092651 1577.828125,417.605713 
	C1601.969116,422.658600 1625.069824,408.100220 1624.834961,379.796021 
M1480.124512,359.585266 
	C1476.325439,378.777039 1472.526367,397.968811 1468.629028,417.656647 
	C1472.410400,417.656647 1475.564697,417.462799 1478.683472,417.712921 
	C1481.607300,417.947388 1482.776489,416.987946 1483.189819,413.997375 
	C1483.916992,408.735962 1484.965454,403.497833 1486.245117,398.340698 
	C1487.234253,394.353424 1488.250244,390.209839 1490.214233,386.668091 
	C1492.744873,382.104370 1499.756714,380.168396 1504.326904,382.206177 
	C1509.540039,384.530548 1508.636963,389.050934 1507.931030,393.397675 
	C1507.797852,394.217072 1507.593872,395.024780 1507.431274,395.839630 
	C1506.009644,402.965851 1504.589844,410.092468 1503.142700,417.352783 
	C1507.967407,417.352783 1512.372803,417.352783 1516.961060,417.352783 
	C1518.879395,407.642975 1520.986938,398.228973 1522.551392,388.725525 
	C1524.324585,377.954559 1518.286255,370.212280 1507.381104,369.867126 
	C1502.186768,369.702728 1496.933228,371.411499 1491.583008,372.292084 
	C1492.737427,366.188080 1493.991577,359.557098 1495.245728,352.925934 
	C1483.401367,350.947968 1481.878052,351.565460 1480.124512,359.585266 
M1320.950439,359.320709 
	C1308.841675,365.990509 1302.501343,376.304535 1301.889282,390.042267 
	C1301.251709,404.354248 1308.773315,414.527924 1322.819702,417.487976 
	C1335.959229,420.256927 1348.223267,418.544922 1358.173340,407.997772 
	C1355.158691,405.047699 1352.455566,402.402435 1349.990356,399.990051 
	C1346.566895,401.833893 1343.422729,404.123993 1339.906250,405.310699 
	C1328.819336,409.052216 1318.489258,403.942596 1316.565918,394.146973 
	C1314.285767,382.534790 1322.070801,370.565704 1333.547485,367.874786 
	C1341.672485,365.969757 1348.574341,368.017853 1354.109741,374.248138 
	C1357.702271,371.269745 1360.963379,368.566071 1365.546509,364.766357 
	C1359.779297,361.563080 1355.352173,358.131744 1350.340210,356.527740 
	C1340.632690,353.420898 1330.914795,354.777710 1320.950439,359.320709 
M1415.406860,387.984650 
	C1416.556641,382.190430 1417.706543,376.396210 1418.903931,370.362000 
	C1414.070190,370.362000 1409.765503,370.362000 1405.390625,370.362000 
	C1404.865112,372.148499 1404.360352,373.864380 1404.090332,374.782318 
	C1400.293457,373.137878 1396.710083,370.689972 1392.831909,370.061646 
	C1376.143921,367.358032 1362.595337,379.633698 1362.585327,396.970551 
	C1362.577515,410.830627 1372.607056,419.838928 1386.319702,417.899048 
	C1389.824097,417.403290 1393.153442,415.669891 1396.705688,414.456421 
	C1396.839478,415.280487 1397.023682,416.415161 1397.181152,417.384888 
	C1401.510620,417.384888 1405.461304,417.384888 1409.620361,417.384888 
	C1411.513306,407.714722 1413.363281,398.264313 1415.406860,387.984650 
M1640.565796,516.045471 
	C1651.809326,498.146942 1663.052734,480.248383 1674.705566,461.698151 
	C1671.593628,461.698151 1669.563354,461.954895 1667.622437,461.647827 
	C1662.686646,460.867065 1659.851318,462.843445 1657.427490,467.230774 
	C1652.637695,475.900787 1647.163574,484.192749 1641.453491,493.485413 
	C1638.991821,482.356506 1636.755615,472.246826 1634.487305,461.991852 
	C1629.853271,461.991852 1625.458252,461.991852 1620.699219,461.991852 
	C1624.072388,476.595276 1627.364380,490.839111 1630.652100,505.083954 
	C1631.722778,509.722931 1629.451904,514.334656 1625.004395,514.907593 
	C1621.776611,515.323425 1618.357422,514.253052 1614.296387,513.756470 
	C1612.783203,516.109375 1610.764282,519.248718 1608.757812,522.368774 
	C1619.501465,529.905029 1631.366943,527.590698 1640.565796,516.045471 
M1681.848145,390.142578 
	C1682.120361,363.756683 1666.292725,368.585236 1650.066895,373.287994 
	C1650.066895,372.744019 1650.066895,371.644958 1650.066895,370.453217 
	C1645.795410,370.453217 1641.705933,370.453217 1637.384766,370.453217 
	C1634.267212,386.182373 1631.187988,401.718628 1628.062988,417.485596 
	C1632.942261,417.485596 1637.233765,417.485596 1641.840576,417.485596 
	C1643.273804,410.233093 1644.541992,403.050140 1646.165161,395.948364 
	C1646.894531,392.757416 1647.869995,389.445465 1649.554199,386.689819 
	C1652.382690,382.062225 1659.739380,380.035522 1664.144165,382.386017 
	C1669.049194,385.003357 1668.143188,389.402618 1667.239990,393.788300 
	C1665.639404,401.559357 1664.180176,409.359528 1662.563354,417.652863 
	C1666.117920,417.652863 1669.102173,417.438690 1672.041748,417.709869 
	C1675.336914,418.013916 1676.667603,416.902985 1677.212891,413.521271 
	C1678.429199,405.980042 1680.162109,398.522095 1681.848145,390.142578 
M1416.385498,484.144379 
	C1417.019775,475.067963 1414.208740,467.685547 1405.692261,463.416687 
	C1394.490234,457.801788 1379.007080,461.596130 1371.489502,471.617920 
	C1363.237671,482.618683 1364.617310,498.243866 1374.453369,505.183289 
	C1384.043945,511.949493 1400.842773,510.960541 1409.971680,502.932587 
	C1408.164062,500.110138 1406.340332,497.262451 1404.546631,494.461517 
	C1391.622803,501.522278 1381.062256,499.172638 1380.076660,489.014160 
	C1390.714844,489.014160 1401.320190,488.879700 1411.918579,489.095062 
	C1415.152832,489.160828 1416.520630,488.178986 1416.385498,484.144379 
M1531.107056,470.656189 
	C1529.769165,472.944031 1528.139282,475.112152 1527.142944,477.540161 
	C1522.466675,488.936157 1525.489746,500.430450 1534.424805,505.917694 
	C1544.383789,512.033752 1561.639282,510.435455 1568.719604,502.691223 
	C1566.969849,499.953827 1565.212280,497.203979 1563.482178,494.497345 
	C1550.165894,501.546997 1539.054199,498.983887 1539.276001,489.010132 
	C1545.087891,489.010132 1550.906250,489.010101 1556.724487,489.010101 
	C1562.677856,489.010101 1568.631226,489.010132 1574.468506,489.010132 
	C1577.548218,472.643860 1570.110352,461.946472 1555.405029,461.040833 
	C1546.124512,460.469299 1537.973511,463.030090 1531.107056,470.656189 
M1419.941040,413.838043 
	C1425.359253,415.258392 1430.704590,417.240753 1436.214355,417.956116 
	C1443.032227,418.841309 1449.872925,417.995667 1455.949341,414.222168 
	C1461.254150,410.927887 1463.739868,406.102081 1462.968628,399.871979 
	C1462.235474,393.949188 1457.714478,391.732452 1452.741699,390.308167 
	C1449.231934,389.302917 1445.531738,388.926697 1442.075439,387.787567 
	C1440.599365,387.301056 1439.527954,385.586914 1438.272583,384.430664 
	C1439.501465,383.222656 1440.534790,381.563019 1442.010132,380.923706 
	C1443.759766,380.165497 1445.948730,379.854492 1447.843994,380.111633 
	C1452.385010,380.727661 1456.865356,381.789795 1461.682739,382.733093 
	C1463.043213,379.981567 1464.570557,376.892365 1466.383301,373.225952 
	C1463.081665,372.191956 1460.180908,370.885345 1457.149658,370.408630 
	C1447.960449,368.963623 1438.824341,368.766296 1430.791992,374.577637 
	C1426.226562,377.880676 1424.346802,382.608978 1425.139648,388.148438 
	C1425.898193,393.447510 1429.697754,396.037720 1434.488892,397.349609 
	C1437.847900,398.269409 1441.364380,398.694519 1444.627075,399.855927 
	C1446.572144,400.548309 1448.162598,402.237213 1449.912476,403.478180 
	C1448.039185,404.824738 1446.117065,407.375793 1444.301270,407.302185 
	C1437.651245,407.032654 1431.036499,405.889771 1423.429565,404.955566 
	C1422.549805,406.807983 1421.009277,410.051331 1419.941040,413.838043 
M1483.176270,497.384918 
	C1484.085449,501.227020 1484.994751,505.069092 1485.917114,508.966949 
	C1488.997925,508.966949 1491.706665,508.647430 1494.308350,509.039368 
	C1498.562500,509.680267 1500.860840,507.890106 1502.996216,504.326141 
	C1510.862183,491.198151 1519.062622,478.270752 1527.117554,465.255615 
	C1527.742310,464.246155 1528.214722,463.142395 1528.630249,462.331482 
	C1519.037354,459.435730 1512.713745,462.670837 1509.245850,471.701630 
	C1508.542603,473.532959 1507.190186,475.114716 1506.139526,476.813019 
	C1502.890259,482.064972 1499.642212,487.317719 1495.801270,493.528015 
	C1493.334595,482.138336 1491.138184,471.995880 1488.984497,462.051422 
	C1484.225830,462.051422 1480.003174,462.051422 1475.433105,462.051422 
	C1478.025391,473.828552 1480.526855,485.193054 1483.176270,497.384918 
M1430.642700,457.026947 
	C1427.207275,474.205353 1423.771851,491.383728 1420.285645,508.816437 
	C1425.139893,508.816437 1429.426514,508.816437 1434.091431,508.816437 
	C1438.390015,487.256714 1442.679443,465.743073 1446.983521,444.156006 
	C1441.976807,444.156006 1437.574707,444.156006 1433.167847,444.156006 
	C1432.347534,448.375885 1431.587524,452.285858 1430.642700,457.026947 
M1616.378174,469.914551 
	C1616.924927,467.058533 1617.471680,464.202515 1618.307495,459.836731 
	C1611.879028,461.785278 1606.510986,463.412415 1601.089600,465.055695 
	C1601.089600,464.406555 1601.089600,463.206177 1601.089600,462.008789 
	C1596.769653,462.008789 1592.691406,462.008789 1588.470825,462.008789 
	C1585.355835,477.708008 1582.295044,493.133148 1579.188843,508.787842 
	C1583.903931,508.787842 1588.345459,508.787842 1592.992554,508.787842 
	C1594.475586,501.345398 1595.855957,494.009979 1597.411743,486.711914 
	C1599.397095,477.398041 1603.253052,474.276886 1612.753784,473.487000 
	C1613.971924,473.385773 1615.057983,471.695404 1616.378174,469.914551 
M1464.142700,489.790924 
	C1465.978394,480.591705 1467.814087,471.392456 1469.708374,461.899353 
	C1464.893555,461.899353 1460.627930,461.899353 1456.015503,461.899353 
	C1452.908569,477.526428 1449.823364,493.044342 1446.699219,508.757599 
	C1451.561279,508.757599 1455.824585,508.757599 1460.388428,508.757599 
	C1461.618042,502.623627 1462.819946,496.628510 1464.142700,489.790924 
M1462.474121,440.533539 
	C1458.374512,442.471039 1456.270264,445.536194 1457.598877,450.116791 
	C1458.710815,453.949738 1462.702759,455.874847 1467.301758,454.979523 
	C1471.542969,454.153839 1474.092896,451.617676 1474.310425,447.186127 
	C1474.568970,441.915161 1470.539062,439.423645 1462.474121,440.533539 
z"/>
<path fill="#000000" opacity="1.000000" stroke="none" 
	d="
M518.646362,272.636353 
	C517.386414,273.174408 515.703552,273.941711 514.020081,273.942749 
	C420.285370,274.000336 326.550568,273.996368 232.815796,273.970947 
	C231.353836,273.970551 229.891983,273.626007 228.158081,273.105591 
	C228.871124,272.669800 229.856186,272.483490 230.841232,272.483490 
	C326.635193,272.482544 422.429138,272.495728 518.646362,272.636353 
z"/>
<path fill="#F15A25" opacity="1.000000" stroke="none" 
	d="
M544.837585,302.609497 
	C550.375244,278.956024 559.272034,256.875885 575.714539,238.524414 
	C591.851807,220.513611 612.916260,213.524292 636.365173,212.219818 
	C639.191284,212.062607 642.028748,212.068161 644.860962,212.068069 
	C851.167908,212.061096 1057.474854,212.041840 1263.781738,212.140472 
	C1271.069702,212.143951 1278.464233,212.740875 1285.625488,214.059067 
	C1310.582886,218.653061 1324.682861,234.477448 1326.821655,259.830322 
	C1328.037720,274.245117 1326.125000,288.390289 1322.593994,302.796387 
	C1299.629761,302.796387 1276.695557,302.796387 1253.260742,302.796387 
	C1253.565186,306.161011 1253.867798,309.056854 1254.083252,311.959167 
	C1255.472046,330.653564 1251.547119,348.737305 1247.854614,366.865845 
	C1237.822144,416.120636 1228.366577,465.499084 1217.734497,514.623352 
	C1210.640381,547.400085 1201.906860,579.819092 1180.696777,607.491394 
	C1185.885986,605.092896 1191.080322,602.705750 1196.263306,600.293945 
	C1210.151733,593.830872 1224.363403,587.962891 1237.808350,580.679993 
	C1247.136108,575.627319 1256.545776,575.974915 1266.777222,576.311523 
	C1263.205688,591.013611 1258.139404,604.820862 1251.339722,618.037903 
	C1234.304565,651.150330 1206.782349,666.895813 1170.010132,666.906372 
	C961.703430,666.966309 753.396729,666.970276 545.090210,666.777954 
	C536.536560,666.770020 527.728516,665.537415 519.482605,663.265442 
	C498.798950,657.566345 487.349182,642.869324 484.869843,621.589539 
	C482.922211,604.873840 486.148529,588.761475 489.370728,572.587891 
	C489.663177,571.119995 489.910004,569.643005 490.657288,567.676331 
	C522.946655,567.182434 554.756775,567.182434 586.910217,567.182434 
	C587.322266,568.974976 587.675354,570.564697 588.053711,572.148376 
	C592.548584,590.963806 603.158875,604.869446 620.945435,612.953796 
	C635.845276,619.726135 651.648926,619.906372 667.528564,618.975830 
	C712.465759,616.342468 744.694397,592.647278 757.638611,549.579224 
	C765.993713,521.780090 770.939026,492.956085 777.420044,464.558105 
	C776.169800,464.229095 775.701416,463.998566 775.232605,463.997864 
	C753.073425,463.965302 730.913757,463.897522 708.756287,464.082367 
	C707.500916,464.092804 705.450806,466.008942 705.144592,467.351501 
	C702.554871,478.706055 700.388733,490.156372 697.890808,501.532959 
	C695.216370,513.713379 692.594543,525.917725 689.404724,537.967346 
	C687.808472,543.997437 684.333435,549.227112 678.548157,552.356506 
	C667.958313,558.084778 658.360352,552.516113 658.195923,540.550903 
	C658.168579,538.562500 658.240967,536.529175 658.620667,534.585632 
	C661.395630,520.381042 664.174683,506.176178 667.113281,492.004761 
	C677.012451,444.264709 686.853455,396.511749 697.071533,348.839752 
	C698.400696,342.638641 701.160645,336.499542 704.417725,331.021271 
	C708.081726,324.858643 717.749634,322.889282 724.683167,325.730743 
	C729.742676,327.804169 731.589111,332.274078 730.821289,340.634277 
	C730.745300,341.461914 730.617249,342.288086 730.458801,343.104340 
	C728.493835,353.228973 726.562744,363.360504 724.533508,373.472290 
	C722.549744,383.357849 720.463074,393.222778 718.382019,403.287842 
	C742.205383,403.287842 765.424622,403.287842 789.156128,403.287842 
	C793.965332,378.209076 799.492859,353.499481 803.237061,328.522552 
	C806.090027,309.491241 801.930237,291.609436 787.071594,277.755890 
	C772.985107,264.622162 755.608582,260.442169 736.996399,259.774628 
	C700.729919,258.473938 670.119507,269.360779 648.631348,300.356018 
	C647.602112,301.840698 644.777039,302.765961 642.777039,302.785309 
	C624.284729,302.964325 605.789795,302.920135 587.295776,302.872437 
	C573.142944,302.835968 558.990295,302.700775 544.837585,302.609497 
M1128.363159,606.937378 
	C1142.402832,600.084656 1152.977661,589.482849 1161.343872,576.482849 
	C1172.676880,558.872681 1179.577515,539.445007 1183.807983,519.135315 
	C1194.735718,466.673645 1205.258545,414.127686 1215.945435,361.615814 
	C1219.099731,346.115845 1222.515991,330.677216 1221.983398,314.672852 
	C1221.065063,287.069702 1207.129883,270.165833 1180.098389,264.722168 
	C1174.584229,263.611694 1168.870972,263.037750 1163.245361,263.008392 
	C1131.085083,262.840607 1098.923462,262.963501 1066.763062,262.827423 
	C1063.333374,262.812927 1062.378296,264.015167 1061.751831,267.233734 
	C1058.573120,283.567413 1055.075195,299.838928 1051.683960,316.131165 
	C1032.488647,408.351044 1013.288757,500.569977 994.101440,592.791504 
	C992.523010,600.378296 991.026855,607.982178 989.443970,615.818176 
	C990.904236,615.943726 991.717163,616.074707 992.530151,616.074646 
	C1024.691040,616.070862 1056.852905,616.182434 1089.012573,615.980286 
	C1102.468628,615.895691 1115.461182,613.127197 1128.363159,606.937378 
M805.175354,596.271240 
	C810.720886,603.611877 817.749084,609.111572 826.149963,612.782349 
	C836.047302,617.106995 846.498474,618.847107 857.250671,619.261353 
	C891.155273,620.567505 920.295898,610.473328 942.357239,583.646790 
	C956.969299,565.878479 965.268677,545.097046 969.969482,522.849243 
	C980.772278,471.722321 991.321289,420.541748 1001.952087,369.378510 
	C1005.472412,352.436035 1009.529236,335.585327 1008.922546,318.053467 
	C1007.864014,287.463593 991.427979,267.267303 961.404236,262.059082 
	C949.391418,259.975189 936.817993,259.529358 924.634155,260.345367 
	C896.050781,262.259735 871.976196,273.901794 854.290283,297.081238 
	C842.766418,312.184601 835.929016,329.481598 832.034119,347.906158 
	C820.951294,400.333130 810.099182,452.808868 799.142090,505.262482 
	C795.463074,522.874512 791.638672,540.453125 792.800049,558.652954 
	C793.653931,572.034851 796.858704,584.603088 805.175354,596.271240 
z"/>
<path fill="#FFFEFE" opacity="1.000000" stroke="none" 
	d="
M544.390381,302.713470 
	C558.990295,302.700775 573.142944,302.835968 587.295776,302.872437 
	C605.789795,302.920135 624.284729,302.964325 642.777039,302.785309 
	C644.777039,302.765961 647.602112,301.840698 648.631348,300.356018 
	C670.119507,269.360779 700.729919,258.473938 736.996399,259.774628 
	C755.608582,260.442169 772.985107,264.622162 787.071594,277.755890 
	C801.930237,291.609436 806.090027,309.491241 803.237061,328.522552 
	C799.492859,353.499481 793.965332,378.209076 789.156128,403.287842 
	C765.424622,403.287842 742.205383,403.287842 718.382019,403.287842 
	C720.463074,393.222778 722.549744,383.357849 724.533508,373.472290 
	C726.562744,363.360504 728.493835,353.228973 730.458801,343.104340 
	C730.617249,342.288086 730.745300,341.461914 730.821289,340.634277 
	C731.589111,332.274078 729.742676,327.804169 724.683167,325.730743 
	C717.749634,322.889282 708.081726,324.858643 704.417725,331.021271 
	C701.160645,336.499542 698.400696,342.638641 697.071533,348.839752 
	C686.853455,396.511749 677.012451,444.264709 667.113281,492.004761 
	C664.174683,506.176178 661.395630,520.381042 658.620667,534.585632 
	C658.240967,536.529175 658.168579,538.562500 658.195923,540.550903 
	C658.360352,552.516113 667.958313,558.084778 678.548157,552.356506 
	C684.333435,549.227112 687.808472,543.997437 689.404724,537.967346 
	C692.594543,525.917725 695.216370,513.713379 697.890808,501.532959 
	C700.388733,490.156372 702.554871,478.706055 705.144592,467.351501 
	C705.450806,466.008942 707.500916,464.092804 708.756287,464.082367 
	C730.913757,463.897522 753.073425,463.965302 775.232605,463.997864 
	C775.701416,463.998566 776.169800,464.229095 777.420044,464.558105 
	C770.939026,492.956085 765.993713,521.780090 757.638611,549.579224 
	C744.694397,592.647278 712.465759,616.342468 667.528564,618.975830 
	C651.648926,619.906372 635.845276,619.726135 620.945435,612.953796 
	C603.158875,604.869446 592.548584,590.963806 588.053711,572.148376 
	C587.675354,570.564697 587.322266,568.974976 586.910217,567.182434 
	C554.756775,567.182434 522.946655,567.182434 490.707275,567.279419 
	C461.668427,567.315186 433.058685,567.306396 404.449554,567.168823 
	C391.488647,567.106445 381.080475,558.448120 380.593170,545.852478 
	C379.954773,529.350952 388.181671,514.334290 407.896759,514.637207 
	C438.666107,515.110046 469.448242,514.747070 501.130493,514.742676 
	C531.930481,514.747070 561.824951,514.747070 591.926575,514.747070 
	C596.780334,491.384247 601.537048,468.488525 606.301270,445.556641 
	C605.391663,445.302979 604.921692,445.056732 604.452148,445.057434 
	C574.680786,445.101410 544.909363,445.165436 515.138000,445.227661 
	C513.311523,445.160889 511.485077,445.036011 509.658600,445.035797 
	C433.843384,445.026001 358.028168,445.028534 282.212952,445.026276 
	C269.402252,445.025909 260.818634,439.637756 257.077301,429.268768 
	C253.644424,419.754700 257.688110,404.750305 265.468628,398.068939 
	C270.564514,393.692993 276.580688,392.467285 283.123810,392.471313 
	C360.105377,392.518555 437.086945,392.502716 514.068542,392.501129 
	C516.067749,392.501068 518.066895,392.473846 520.709106,392.434631 
	C521.352051,392.409912 521.809998,392.475555 521.932129,392.668243 
	C522.434265,392.732361 522.814270,392.603760 523.511780,392.457397 
	C524.235596,392.342987 524.641846,392.246399 525.048096,392.149811 
	C525.208313,392.232117 525.368469,392.314453 526.157043,392.441956 
	C553.097534,392.521210 579.409729,392.560608 605.721863,392.586761 
	C617.332703,392.598297 617.362000,392.592224 619.716675,381.412689 
	C621.517883,372.860718 623.233215,364.290649 625.035828,355.489197 
	C594.059326,355.489197 563.614014,355.489197 532.785156,355.400330 
	C531.645996,355.422546 530.890381,355.533600 529.794250,355.507385 
	C528.979614,355.458344 528.505493,355.546600 528.031372,355.634827 
	C526.883301,355.520721 525.735229,355.306732 524.587158,355.306732 
	C424.384644,355.305481 324.182129,355.320679 223.305206,355.349609 
	C222.462158,355.403931 222.293549,355.443390 222.124939,355.482819 
	C208.862854,352.679749 200.546494,344.034943 200.923111,332.264954 
	C201.411346,317.007080 207.665588,306.539276 220.161713,303.572083 
	C222.871735,302.928589 225.772614,302.906525 228.585693,302.905670 
	C330.706848,302.874298 432.828003,302.879852 534.949158,302.876770 
	C537.947144,302.876678 540.945129,302.838074 544.390381,302.713470 
z"/>
<path fill="#F15B26" opacity="1.000000" stroke="none" 
	d="
M515.085938,445.622864 
	C544.909363,445.165436 574.680786,445.101410 604.452148,445.057434 
	C604.921692,445.056732 605.391663,445.302979 606.301270,445.556641 
	C601.537048,468.488525 596.780334,491.384247 591.926575,514.747070 
	C561.824951,514.747070 531.930481,514.747070 501.599060,514.639893 
	C505.786041,491.694519 510.409973,468.856293 515.085938,445.622864 
z"/>
<path fill="#F15D29" opacity="1.000000" stroke="none" 
	d="
M533.168701,355.489197 
	C563.614014,355.489197 594.059326,355.489197 625.035828,355.489197 
	C623.233215,364.290649 621.517883,372.860718 619.716675,381.412689 
	C617.362000,392.592224 617.332703,392.598297 605.721863,392.586761 
	C579.409729,392.560608 553.097534,392.521210 526.409790,392.346497 
	C528.344482,380.740906 530.654663,369.276031 533.011108,357.160675 
	C532.956604,356.374420 532.855896,356.238586 532.825684,355.927185 
	C532.896179,355.751648 533.168701,355.489197 533.168701,355.489197 
z"/>
<path fill="#F9F9F9" opacity="1.000000" stroke="none" 
	d="
M1316.989258,508.967407 
	C1309.020874,508.967407 1301.550049,508.967407 1293.633667,508.967407 
	C1297.803345,488.165131 1301.878418,467.834747 1305.943604,447.553925 
	C1315.775635,447.553925 1325.105713,447.251038 1334.407715,447.632355 
	C1345.469727,448.085785 1355.449097,451.535614 1359.869385,462.740051 
	C1364.502441,474.483429 1362.100586,485.774261 1354.484253,495.658752 
	C1347.376343,504.883636 1337.207642,508.226562 1325.980225,508.893005 
	C1323.157593,509.060577 1320.318604,508.950104 1316.989258,508.967407 
M1346.882446,479.824890 
	C1348.576050,466.661621 1344.486084,460.462097 1332.921021,459.377197 
	C1328.030396,458.918427 1323.060791,459.300690 1317.953979,459.300690 
	C1315.417847,472.019501 1312.960205,484.344635 1310.419800,497.084991 
	C1315.318481,497.084991 1319.629028,497.118103 1323.939087,497.078674 
	C1335.824829,496.969940 1342.809814,491.923920 1346.882446,479.824890 
z"/>
<path fill="#F9F9F9" opacity="1.000000" stroke="none" 
	d="
M1624.852783,380.241394 
	C1625.069824,408.100220 1601.969116,422.658600 1577.828125,417.605713 
	C1561.044067,414.092651 1553.269043,399.248749 1558.233398,381.230316 
	C1564.397583,358.857422 1593.011475,347.490326 1612.950928,359.519531 
	C1620.563965,364.112457 1624.066895,371.165375 1624.852783,380.241394 
M1571.739624,394.545532 
	C1573.873047,401.984467 1577.989624,405.469086 1585.462158,406.161682 
	C1600.434814,407.549500 1611.575195,396.049255 1610.176636,380.648987 
	C1609.581543,374.096558 1605.720093,369.582886 1599.314453,367.952393 
	C1583.363770,363.892273 1569.908447,376.415131 1571.739624,394.545532 
z"/>
<path fill="#F8F8F8" opacity="1.000000" stroke="none" 
	d="
M1480.210449,359.172791 
	C1481.878052,351.565460 1483.401367,350.947968 1495.245728,352.925934 
	C1493.991577,359.557098 1492.737427,366.188080 1491.583008,372.292084 
	C1496.933228,371.411499 1502.186768,369.702728 1507.381104,369.867126 
	C1518.286255,370.212280 1524.324585,377.954559 1522.551392,388.725525 
	C1520.986938,398.228973 1518.879395,407.642975 1516.961060,417.352783 
	C1512.372803,417.352783 1507.967407,417.352783 1503.142700,417.352783 
	C1504.589844,410.092468 1506.009644,402.965851 1507.431274,395.839630 
	C1507.593872,395.024780 1507.797852,394.217072 1507.931030,393.397675 
	C1508.636963,389.050934 1509.540039,384.530548 1504.326904,382.206177 
	C1499.756714,380.168396 1492.744873,382.104370 1490.214233,386.668091 
	C1488.250244,390.209839 1487.234253,394.353424 1486.245117,398.340698 
	C1484.965454,403.497833 1483.916992,408.735962 1483.189819,413.997375 
	C1482.776489,416.987946 1481.607300,417.947388 1478.683472,417.712921 
	C1475.564697,417.462799 1472.410400,417.656647 1468.629028,417.656647 
	C1472.526367,397.968811 1476.325439,378.777039 1480.210449,359.172791 
z"/>
<path fill="#F9F9F9" opacity="1.000000" stroke="none" 
	d="
M1321.295532,359.170654 
	C1330.914795,354.777710 1340.632690,353.420898 1350.340210,356.527740 
	C1355.352173,358.131744 1359.779297,361.563080 1365.546509,364.766357 
	C1360.963379,368.566071 1357.702271,371.269745 1354.109741,374.248138 
	C1348.574341,368.017853 1341.672485,365.969757 1333.547485,367.874786 
	C1322.070801,370.565704 1314.285767,382.534790 1316.565918,394.146973 
	C1318.489258,403.942596 1328.819336,409.052216 1339.906250,405.310699 
	C1343.422729,404.123993 1346.566895,401.833893 1349.990356,399.990051 
	C1352.455566,402.402435 1355.158691,405.047699 1358.173340,407.997772 
	C1348.223267,418.544922 1335.959229,420.256927 1322.819702,417.487976 
	C1308.773315,414.527924 1301.251709,404.354248 1301.889282,390.042267 
	C1302.501343,376.304535 1308.841675,365.990509 1321.295532,359.170654 
z"/>
<path fill="#F9F9F9" opacity="1.000000" stroke="none" 
	d="
M1415.310059,388.399261 
	C1413.363281,398.264313 1411.513306,407.714722 1409.620361,417.384888 
	C1405.461304,417.384888 1401.510620,417.384888 1397.181152,417.384888 
	C1397.023682,416.415161 1396.839478,415.280487 1396.705688,414.456421 
	C1393.153442,415.669891 1389.824097,417.403290 1386.319702,417.899048 
	C1372.607056,419.838928 1362.577515,410.830627 1362.585327,396.970551 
	C1362.595337,379.633698 1376.143921,367.358032 1392.831909,370.061646 
	C1396.710083,370.689972 1400.293457,373.137878 1404.090332,374.782318 
	C1404.360352,373.864380 1404.865112,372.148499 1405.390625,370.362000 
	C1409.765503,370.362000 1414.070190,370.362000 1418.903931,370.362000 
	C1417.706543,376.396210 1416.556641,382.190430 1415.310059,388.399261 
M1376.706543,398.752106 
	C1378.833008,405.658997 1385.036865,408.640350 1391.975342,405.935486 
	C1397.520386,403.773865 1400.072510,399.259521 1400.808228,393.641754 
	C1401.377808,389.293335 1400.630005,385.195557 1396.534912,382.716766 
	C1392.166870,380.072815 1387.578369,380.320099 1383.296631,382.935028 
	C1377.686035,386.361328 1376.187012,391.795410 1376.706543,398.752106 
z"/>
<path fill="#F9F9F9" opacity="1.000000" stroke="none" 
	d="
M1640.339478,516.322693 
	C1631.366943,527.590698 1619.501465,529.905029 1608.757812,522.368774 
	C1610.764282,519.248718 1612.783203,516.109375 1614.296387,513.756470 
	C1618.357422,514.253052 1621.776611,515.323425 1625.004395,514.907593 
	C1629.451904,514.334656 1631.722778,509.722931 1630.652100,505.083954 
	C1627.364380,490.839111 1624.072388,476.595276 1620.699219,461.991852 
	C1625.458252,461.991852 1629.853271,461.991852 1634.487305,461.991852 
	C1636.755615,472.246826 1638.991821,482.356506 1641.453491,493.485413 
	C1647.163574,484.192749 1652.637695,475.900787 1657.427490,467.230774 
	C1659.851318,462.843445 1662.686646,460.867065 1667.622437,461.647827 
	C1669.563354,461.954895 1671.593628,461.698151 1674.705566,461.698151 
	C1663.052734,480.248383 1651.809326,498.146942 1640.339478,516.322693 
z"/>
<path fill="#F8F8F8" opacity="1.000000" stroke="none" 
	d="
M1681.766357,390.586426 
	C1680.162109,398.522095 1678.429199,405.980042 1677.212891,413.521271 
	C1676.667603,416.902985 1675.336914,418.013916 1672.041748,417.709869 
	C1669.102173,417.438690 1666.117920,417.652863 1662.563354,417.652863 
	C1664.180176,409.359528 1665.639404,401.559357 1667.239990,393.788300 
	C1668.143188,389.402618 1669.049194,385.003357 1664.144165,382.386017 
	C1659.739380,380.035522 1652.382690,382.062225 1649.554199,386.689819 
	C1647.869995,389.445465 1646.894531,392.757416 1646.165161,395.948364 
	C1644.541992,403.050140 1643.273804,410.233093 1641.840576,417.485596 
	C1637.233765,417.485596 1632.942261,417.485596 1628.062988,417.485596 
	C1631.187988,401.718628 1634.267212,386.182373 1637.384766,370.453217 
	C1641.705933,370.453217 1645.795410,370.453217 1650.066895,370.453217 
	C1650.066895,371.644958 1650.066895,372.744019 1650.066895,373.287994 
	C1666.292725,368.585236 1682.120361,363.756683 1681.766357,390.586426 
z"/>
<path fill="#F9F9F9" opacity="1.000000" stroke="none" 
	d="
M1416.335205,484.573395 
	C1416.520630,488.178986 1415.152832,489.160828 1411.918579,489.095062 
	C1401.320190,488.879700 1390.714844,489.014160 1380.076660,489.014160 
	C1381.062256,499.172638 1391.622803,501.522278 1404.546631,494.461517 
	C1406.340332,497.262451 1408.164062,500.110138 1409.971680,502.932587 
	C1400.842773,510.960541 1384.043945,511.949493 1374.453369,505.183289 
	C1364.617310,498.243866 1363.237671,482.618683 1371.489502,471.617920 
	C1379.007080,461.596130 1394.490234,457.801788 1405.692261,463.416687 
	C1414.208740,467.685547 1417.019775,475.067963 1416.335205,484.573395 
M1381.239624,479.256592 
	C1381.730713,479.827148 1382.214111,480.886749 1382.713989,480.894562 
	C1389.675903,481.003387 1396.640015,480.968262 1403.788940,480.968262 
	C1403.571655,475.660736 1401.076416,472.699982 1396.200562,471.646332 
	C1390.165894,470.342163 1385.480957,472.553101 1381.239624,479.256592 
z"/>
<path fill="#F8F8F8" opacity="1.000000" stroke="none" 
	d="
M1531.341431,470.384430 
	C1537.973511,463.030090 1546.124512,460.469299 1555.405029,461.040833 
	C1570.110352,461.946472 1577.548218,472.643860 1574.468506,489.010132 
	C1568.631226,489.010132 1562.677856,489.010101 1556.724487,489.010101 
	C1550.906250,489.010101 1545.087891,489.010132 1539.276001,489.010132 
	C1539.054199,498.983887 1550.165894,501.546997 1563.482178,494.497345 
	C1565.212280,497.203979 1566.969849,499.953827 1568.719604,502.691223 
	C1561.639282,510.435455 1544.383789,512.033752 1534.424805,505.917694 
	C1525.489746,500.430450 1522.466675,488.936157 1527.142944,477.540161 
	C1528.139282,475.112152 1529.769165,472.944031 1531.341431,470.384430 
M1553.439209,480.966095 
	C1556.496338,480.966095 1559.553345,480.966095 1562.695557,480.966095 
	C1561.492188,474.201843 1558.651611,471.566315 1552.838867,471.287476 
	C1546.616333,470.988983 1541.870483,474.490662 1540.118530,480.967407 
	C1544.294067,480.967407 1548.380615,480.967407 1553.439209,480.966095 
z"/>
<path fill="#F9F9F9" opacity="1.000000" stroke="none" 
	d="
M1419.704834,413.566376 
	C1421.009277,410.051331 1422.549805,406.807983 1423.429565,404.955566 
	C1431.036499,405.889771 1437.651245,407.032654 1444.301270,407.302185 
	C1446.117065,407.375793 1448.039185,404.824738 1449.912476,403.478149 
	C1448.162598,402.237213 1446.572144,400.548309 1444.627075,399.855927 
	C1441.364380,398.694519 1437.847900,398.269409 1434.488892,397.349609 
	C1429.697754,396.037720 1425.898193,393.447510 1425.139648,388.148438 
	C1424.346802,382.608978 1426.226562,377.880676 1430.791992,374.577637 
	C1438.824341,368.766296 1447.960449,368.963623 1457.149658,370.408630 
	C1460.180908,370.885345 1463.081665,372.191956 1466.383301,373.225952 
	C1464.570557,376.892365 1463.043213,379.981567 1461.682739,382.733093 
	C1456.865356,381.789795 1452.385010,380.727661 1447.843994,380.111633 
	C1445.948730,379.854492 1443.759766,380.165497 1442.010132,380.923706 
	C1440.534790,381.563019 1439.501465,383.222656 1438.272583,384.430664 
	C1439.527954,385.586914 1440.599365,387.301056 1442.075439,387.787567 
	C1445.531738,388.926697 1449.231934,389.302917 1452.741699,390.308167 
	C1457.714478,391.732452 1462.235474,393.949188 1462.968628,399.871979 
	C1463.739868,406.102081 1461.254150,410.927887 1455.949341,414.222168 
	C1449.872925,417.995667 1443.032227,418.841309 1436.214355,417.956116 
	C1430.704590,417.240753 1425.359253,415.258392 1419.704834,413.566376 
z"/>
<path fill="#F9F9F9" opacity="1.000000" stroke="none" 
	d="
M1483.102295,496.971252 
	C1480.526855,485.193054 1478.025391,473.828552 1475.433105,462.051422 
	C1480.003174,462.051422 1484.225830,462.051422 1488.984497,462.051422 
	C1491.138184,471.995880 1493.334595,482.138336 1495.801270,493.528015 
	C1499.642212,487.317719 1502.890259,482.064972 1506.139526,476.813019 
	C1507.190186,475.114716 1508.542603,473.532959 1509.245850,471.701630 
	C1512.713745,462.670837 1519.037354,459.435730 1528.630249,462.331482 
	C1528.214722,463.142395 1527.742310,464.246155 1527.117554,465.255615 
	C1519.062622,478.270752 1510.862183,491.198151 1502.996216,504.326141 
	C1500.860840,507.890106 1498.562500,509.680267 1494.308350,509.039368 
	C1491.706665,508.647430 1488.997925,508.966949 1485.917114,508.966949 
	C1484.994751,505.069092 1484.085449,501.227020 1483.102295,496.971252 
z"/>
<path fill="#F9F9F9" opacity="1.000000" stroke="none" 
	d="
M1430.735107,456.611389 
	C1431.587524,452.285858 1432.347534,448.375885 1433.167847,444.156006 
	C1437.574707,444.156006 1441.976807,444.156006 1446.983521,444.156006 
	C1442.679443,465.743073 1438.390015,487.256714 1434.091431,508.816437 
	C1429.426514,508.816437 1425.139893,508.816437 1420.285645,508.816437 
	C1423.771851,491.383728 1427.207275,474.205353 1430.735107,456.611389 
z"/>
<path fill="#F8F8F8" opacity="1.000000" stroke="none" 
	d="
M1616.291626,470.327881 
	C1615.057983,471.695404 1613.971924,473.385773 1612.753784,473.487000 
	C1603.253052,474.276886 1599.397095,477.398041 1597.411743,486.711914 
	C1595.855957,494.009979 1594.475586,501.345398 1592.992554,508.787842 
	C1588.345459,508.787842 1583.903931,508.787842 1579.188843,508.787842 
	C1582.295044,493.133148 1585.355835,477.708008 1588.470825,462.008789 
	C1592.691406,462.008789 1596.769653,462.008789 1601.089600,462.008789 
	C1601.089600,463.206177 1601.089600,464.406555 1601.089600,465.055695 
	C1606.510986,463.412415 1611.879028,461.785278 1618.307495,459.836731 
	C1617.471680,464.202515 1616.924927,467.058533 1616.291626,470.327881 
z"/>
<path fill="#F9F9F9" opacity="1.000000" stroke="none" 
	d="
M1464.082275,490.212158 
	C1462.819946,496.628510 1461.618042,502.623627 1460.388428,508.757599 
	C1455.824585,508.757599 1451.561279,508.757599 1446.699219,508.757599 
	C1449.823364,493.044342 1452.908569,477.526428 1456.015503,461.899353 
	C1460.627930,461.899353 1464.893555,461.899353 1469.708374,461.899353 
	C1467.814087,471.392456 1465.978394,480.591705 1464.082275,490.212158 
z"/>
<path fill="#F8F8F8" opacity="1.000000" stroke="none" 
	d="
M1462.847900,440.374817 
	C1470.539062,439.423645 1474.568970,441.915161 1474.310425,447.186127 
	C1474.092896,451.617676 1471.542969,454.153839 1467.301758,454.979523 
	C1462.702759,455.874847 1458.710815,453.949738 1457.598877,450.116791 
	C1456.270264,445.536194 1458.374512,442.471039 1462.847900,440.374817 
z"/>
<path fill="#010101" opacity="1.000000" stroke="none" 
	d="
M532.755188,356.102722 
	C532.855896,356.238586 532.956604,356.374420 532.983521,356.752930 
	C531.374084,356.744659 529.838501,356.493683 528.167114,355.938782 
	C528.505493,355.546600 528.979614,355.458344 530.019165,355.659546 
	C531.308167,356.000214 532.031677,356.051453 532.755188,356.102722 
z"/>
<path fill="#010101" opacity="1.000000" stroke="none" 
	d="
M521.809998,392.475555 
	C521.809998,392.475555 521.352051,392.409912 521.155396,392.288025 
	C522.185730,391.967743 523.412720,391.769348 524.843872,391.860382 
	C524.641846,392.246399 524.235596,392.342987 523.165649,392.314026 
	C522.271362,392.284149 522.040649,392.379852 521.809998,392.475555 
z"/>
<path fill="#010101" opacity="1.000000" stroke="none" 
	d="
M222.177536,355.707947 
	C222.293549,355.443390 222.462158,355.403931 222.859695,355.487244 
	C222.802444,355.717712 222.516296,355.825409 222.177536,355.707947 
z"/>
<path fill="#FFFEFE" opacity="1.000000" stroke="none" 
	d="
M1128.018066,607.083130 
	C1115.461182,613.127197 1102.468628,615.895691 1089.012573,615.980286 
	C1056.852905,616.182434 1024.691040,616.070862 992.530151,616.074646 
	C991.717163,616.074707 990.904236,615.943726 989.443970,615.818176 
	C991.026855,607.982178 992.523010,600.378296 994.101440,592.791504 
	C1013.288757,500.569977 1032.488647,408.351044 1051.683960,316.131165 
	C1055.075195,299.838928 1058.573120,283.567413 1061.751831,267.233734 
	C1062.378296,264.015167 1063.333374,262.812927 1066.763062,262.827423 
	C1098.923462,262.963501 1131.085083,262.840607 1163.245361,263.008392 
	C1168.870972,263.037750 1174.584229,263.611694 1180.098389,264.722168 
	C1207.129883,270.165833 1221.065063,287.069702 1221.983398,314.672852 
	C1222.515991,330.677216 1219.099731,346.115845 1215.945435,361.615814 
	C1205.258545,414.127686 1194.735718,466.673645 1183.807983,519.135315 
	C1179.577515,539.445007 1172.676880,558.872681 1161.343872,576.482849 
	C1152.977661,589.482849 1142.402832,600.084656 1128.018066,607.083130 
M1114.182861,357.682983 
	C1100.684937,422.806183 1087.187134,487.929382 1073.576782,553.595276 
	C1078.120728,553.595276 1081.932861,553.660034 1085.741943,553.583618 
	C1099.149658,553.314697 1106.355469,547.337341 1109.090698,534.227112 
	C1120.987427,477.202301 1132.920044,420.184784 1144.712524,363.138397 
	C1146.461182,354.678894 1148.001709,346.121307 1148.773193,337.531372 
	C1149.458618,329.898407 1146.257202,326.204865 1138.680054,325.371490 
	C1132.956055,324.741913 1127.107300,325.246857 1121.049438,325.246857 
	C1118.833374,335.719299 1116.597168,346.287018 1114.182861,357.682983 
z"/>
<path fill="#FFFEFE" opacity="1.000000" stroke="none" 
	d="
M804.980713,595.970154 
	C796.858704,584.603088 793.653931,572.034851 792.800049,558.652954 
	C791.638672,540.453125 795.463074,522.874512 799.142090,505.262482 
	C810.099182,452.808868 820.951294,400.333130 832.034119,347.906158 
	C835.929016,329.481598 842.766418,312.184601 854.290283,297.081238 
	C871.976196,273.901794 896.050781,262.259735 924.634155,260.345367 
	C936.817993,259.529358 949.391418,259.975189 961.404236,262.059082 
	C991.427979,267.267303 1007.864014,287.463593 1008.922546,318.053467 
	C1009.529236,335.585327 1005.472412,352.436035 1001.952087,369.378510 
	C991.321289,420.541748 980.772278,471.722321 969.969482,522.849243 
	C965.268677,545.097046 956.969299,565.878479 942.357239,583.646790 
	C920.295898,610.473328 891.155273,620.567505 857.250671,619.261353 
	C846.498474,618.847107 836.047302,617.106995 826.149963,612.782349 
	C817.749084,609.111572 810.720886,603.611877 804.980713,595.970154 
M901.690857,509.162140 
	C912.267395,458.174866 922.907043,407.200500 933.344727,356.184845 
	C934.736267,349.383820 935.648621,342.385376 935.799866,335.456879 
	C935.963806,327.948364 932.016052,324.773804 924.463318,324.711731 
	C915.972168,324.641876 910.153137,329.047638 906.593628,336.187256 
	C904.171326,341.046082 902.314941,346.353882 901.194763,351.669373 
	C889.805176,405.713837 878.496765,459.776245 867.489014,513.899414 
	C865.513428,523.613220 864.424866,533.603821 864.032166,543.510437 
	C863.751953,550.578552 868.040039,553.845947 875.148132,554.246094 
	C883.381958,554.709473 889.378479,550.852051 891.920654,543.463257 
	C895.690918,532.505066 898.330444,521.157715 901.690857,509.162140 
z"/>
<path fill="#111111" opacity="1.000000" stroke="none" 
	d="
M532.825684,355.927185 
	C532.031677,356.051453 531.308167,356.000214 530.359741,355.796814 
	C530.890381,355.533600 531.645996,355.422546 532.785156,355.400330 
	C533.168701,355.489197 532.896179,355.751648 532.825684,355.927185 
z"/>
<path fill="#878787" opacity="1.000000" stroke="none" 
	d="
M521.932129,392.668243 
	C522.040649,392.379852 522.271362,392.284149 522.848145,392.331818 
	C522.814270,392.603760 522.434265,392.732361 521.932129,392.668243 
z"/>
<path fill="#131313" opacity="1.000000" stroke="none" 
	d="
M1346.803711,480.244232 
	C1342.809814,491.923920 1335.824829,496.969940 1323.939087,497.078674 
	C1319.629028,497.118103 1315.318481,497.084991 1310.419800,497.084991 
	C1312.960205,484.344635 1315.417847,472.019501 1317.953979,459.300690 
	C1323.060791,459.300690 1328.030396,458.918427 1332.921021,459.377197 
	C1344.486084,460.462097 1348.576050,466.661621 1346.803711,480.244232 
z"/>
<path fill="#121212" opacity="1.000000" stroke="none" 
	d="
M1571.664551,394.150665 
	C1569.908447,376.415131 1583.363770,363.892273 1599.314453,367.952393 
	C1605.720093,369.582886 1609.581543,374.096558 1610.176636,380.648987 
	C1611.575195,396.049255 1600.434814,407.549500 1585.462158,406.161682 
	C1577.989624,405.469086 1573.873047,401.984467 1571.664551,394.150665 
z"/>
<path fill="#151515" opacity="1.000000" stroke="none" 
	d="
M1376.637695,398.370087 
	C1376.187012,391.795410 1377.686035,386.361328 1383.296631,382.935028 
	C1387.578369,380.320099 1392.166870,380.072815 1396.534912,382.716766 
	C1400.630005,385.195557 1401.377808,389.293335 1400.808228,393.641754 
	C1400.072510,399.259521 1397.520386,403.773865 1391.975342,405.935486 
	C1385.036865,408.640350 1378.833008,405.658997 1376.637695,398.370087 
z"/>
<path fill="#181818" opacity="1.000000" stroke="none" 
	d="
M1381.450195,478.913879 
	C1385.480957,472.553101 1390.165894,470.342163 1396.200562,471.646332 
	C1401.076416,472.699982 1403.571655,475.660736 1403.788940,480.968262 
	C1396.640015,480.968262 1389.675903,481.003387 1382.713989,480.894562 
	C1382.214111,480.886749 1381.730713,479.827148 1381.450195,478.913879 
z"/>
<path fill="#171717" opacity="1.000000" stroke="none" 
	d="
M1552.953125,480.966736 
	C1548.380615,480.967407 1544.294067,480.967407 1540.118530,480.967407 
	C1541.870483,474.490662 1546.616333,470.988983 1552.838867,471.287476 
	C1558.651611,471.566315 1561.492188,474.201843 1562.695557,480.966095 
	C1559.553345,480.966095 1556.496338,480.966095 1552.953125,480.966736 
z"/>
<path fill="#F15B27" opacity="1.000000" stroke="none" 
	d="
M1114.271851,357.268860 
	C1116.597168,346.287018 1118.833374,335.719299 1121.049438,325.246857 
	C1127.107300,325.246857 1132.956055,324.741913 1138.680054,325.371490 
	C1146.257202,326.204865 1149.458618,329.898407 1148.773193,337.531372 
	C1148.001709,346.121307 1146.461182,354.678894 1144.712524,363.138397 
	C1132.920044,420.184784 1120.987427,477.202301 1109.090698,534.227112 
	C1106.355469,547.337341 1099.149658,553.314697 1085.741943,553.583618 
	C1081.932861,553.660034 1078.120728,553.595276 1073.576782,553.595276 
	C1087.187134,487.929382 1100.684937,422.806183 1114.271851,357.268860 
z"/>
<path fill="#F15B27" opacity="1.000000" stroke="none" 
	d="
M901.571106,509.569092 
	C898.330444,521.157715 895.690918,532.505066 891.920654,543.463257 
	C889.378479,550.852051 883.381958,554.709473 875.148132,554.246094 
	C868.040039,553.845947 863.751953,550.578552 864.032166,543.510437 
	C864.424866,533.603821 865.513428,523.613220 867.489014,513.899414 
	C878.496765,459.776245 889.805176,405.713837 901.194763,351.669373 
	C902.314941,346.353882 904.171326,341.046082 906.593628,336.187256 
	C910.153137,329.047638 915.972168,324.641876 924.463318,324.711731 
	C932.016052,324.773804 935.963806,327.948364 935.799866,335.456879 
	C935.648621,342.385376 934.736267,349.383820 933.344727,356.184845 
	C922.907043,407.200500 912.267395,458.174866 901.571106,509.569092 
z"/>
</svg>