<svg width="160" height="64" viewBox="0 0 160 64" fill="none" xmlns="http://www.w3.org/2000/svg">
  <rect x="2" y="2" width="156" height="60" rx="14" fill="url(#paint0_linear)" stroke="#FFD6A8" stroke-width="4" />
  <g filter="url(#shadow)">
    <circle cx="52" cy="32" r="18" fill="#fff6e9" />
    <path d="M52 16C60 16 66 22 66 32C66 42 60 48 52 48C44 48 38 42 38 32C38 22 44 16 52 16Z" fill="#EA580C" opacity="0.9" />
    <path d="M46 26H55L58 32L55 38H46L43 32L46 26Z" fill="#FACC15" opacity="0.95" />
    <path d="M55 22L60 32L55 42" stroke="#F97316" stroke-width="3" stroke-linecap="round" />
  </g>
  <text x="82" y="36" font-family="'Inter', 'Segoe UI', sans-serif" font-size="22" font-weight="700" fill="#fff7ed">
    Nagad
  </text>
  <defs>
    <linearGradient id="paint0_linear" x1="0" y1="0" x2="160" y2="64" gradientUnits="userSpaceOnUse">
      <stop stop-color="#EA580C" />
      <stop offset="1" stop-color="#F97316" />
    </linearGradient>
    <filter id="shadow" x="30" y="10" width="44" height="44" filterUnits="userSpaceOnUse">
      <feDropShadow dx="0" dy="2" stdDeviation="2" flood-color="#E2580C" flood-opacity="0.4" />
    </filter>
  </defs>
</svg>
