<svg xmlns="http://www.w3.org/2000/svg" viewBox="0 0 512 341" role="img" aria-labelledby="title desc">
  <title id="title">Nagad Payment Logo</title>
  <desc id="desc">Stylised illustration of the Nagad mobile payment brand</desc>
  <rect width="512" height="341" rx="36" fill="#ffffff" />
  <g transform="translate(64 48)">
    <circle cx="128" cy="128" r="96" fill="#fdb515" />
    <path d="M212 60C244 88 260 128 252 176C244 220 216 256 176 276L160 236C184 224 200 200 204 172C208 144 200 116 180 96L212 60Z" fill="#e65c00" />
    <path d="M128 56C168 56 200 88 200 128C200 168 168 200 128 200C88 200 56 168 56 128C56 88 88 56 128 56ZM128 88C106 88 88 106 88 128C88 150 106 168 128 168C150 168 168 150 168 128C168 106 150 88 128 88Z" fill="#ffffff" />
  </g>
  <text x="272" y="256" font-family="'Helvetica Neue', Arial, sans-serif" font-size="64" font-weight="600" fill="#333333">
    Na<tspan fill="#e65c00">gad</tspan>
  </text>
</svg>
